<svg xmlns="http://www.w3.org/2000/svg" width="16" height="16" fill="currentColor" class="bi bi-heart-pulse-fill" viewBox="0 0 16 16">
  <path d="M1.475 9.025a.5.5 0 0 1 .484.022L4 10.586l1.483-1.564a.5.5 0 0 1 .708 0l1.212 1.273 1.815-3.63a.5.5 0 0 1 .925-.001l1.12 2.922 1.266-1.583a.5.5 0 0 1 .687.022L16 10.586l-1.425 1.425a.5.5 0 0 1-.707 0l-1.483-1.564a.5.5 0 0 1-.708 0L9.293 12.5l-1.815-3.63a.5.5 0 0 1-.925.001L5.373 11.9l-1.266-1.583a.5.5 0 0 1-.687-.022L2.2 9.025l-1.475 1.475a.5.5 0 0 1-.707 0L0 10.207l1.475-1.182Z"/>
  <path d="M8 1a2.5 2.5 0 0 1 2.5 2.5c0 2.28-3.1 4.5-5 4.5s-5-2.22-5-4.5A2.5 2.5 0 0 1 8 1Z"/>
</svg>
